<?xml version="1.0" encoding="utf-8"?>
<!-- Generator: Adobe Illustrator 17.0.0, SVG Export Plug-In . SVG Version: 6.00 Build 0)  -->
<!DOCTYPE svg PUBLIC "-//W3C//DTD SVG 1.1//EN" "http://www.w3.org/Graphics/SVG/1.1/DTD/svg11.dtd">
<svg version="1.1" id="Shape_5_1_" xmlns="http://www.w3.org/2000/svg" xmlns:xlink="http://www.w3.org/1999/xlink" x="0px" y="0px"
	 width="41px" height="61px" viewBox="0 0 41 61" enable-background="new 0 0 41 61" xml:space="preserve">
<g id="Shape_5">
	<g>
		<path fill-rule="evenodd" clip-rule="evenodd" d="M20.5,9.095c-6.267,0-11.366,5.149-11.366,11.478
			c0,6.329,5.099,11.478,11.366,11.478s11.366-5.149,11.366-11.478C31.866,14.244,26.767,9.095,20.5,9.095z M20.5,29.786
			c-5.031,0-9.124-4.133-9.124-9.214s4.093-9.214,9.124-9.214c5.031,0,9.124,4.133,9.124,9.214S25.531,29.786,20.5,29.786z M20.5,0
			C9.196,0,0,9.287,0,20.702c0,4.587,2.674,11.564,8.416,21.954c3.918,7.09,7.818,13.079,7.983,13.331l2.819,4.315
			C19.502,60.738,19.984,61,20.5,61c0.516,0,0.998-0.262,1.282-0.697l2.819-4.315c0.163-0.249,4.035-6.186,7.983-13.331
			C38.326,32.266,41,25.29,41,20.702C41,9.287,31.804,0,20.5,0z M30.465,42.5c-4.127,7.468-8.166,13.662-8.336,13.922L20.5,58.916
			l-1.629-2.493C18.7,56.16,14.63,49.91,10.535,42.5C4.889,32.282,2.026,24.991,2.026,20.83c0-10.287,8.287-18.656,18.474-18.656
			c10.186,0,18.474,8.369,18.474,18.656C38.974,24.992,36.111,32.283,30.465,42.5z"/>
	</g>
</g>
</svg>
