<?xml version="1.0" encoding="utf-8"?>
<!-- Generator: Adobe Illustrator 17.0.0, SVG Export Plug-In . SVG Version: 6.00 Build 0)  -->
<!DOCTYPE svg PUBLIC "-//W3C//DTD SVG 1.1//EN" "http://www.w3.org/Graphics/SVG/1.1/DTD/svg11.dtd">
<svg version="1.1" id="Shape_6_1_" xmlns="http://www.w3.org/2000/svg" xmlns:xlink="http://www.w3.org/1999/xlink" x="0px" y="0px"
	 width="61px" height="61px" viewBox="0 0 61 61" enable-background="new 0 0 61 61" xml:space="preserve">
<g id="Shape_6">
	<g>
		<path fill-rule="evenodd" clip-rule="evenodd" d="M19.935,15.22c0-2.6-2.115-4.715-4.715-4.715c-2.6,0-4.715,2.115-4.715,4.715
			c0,1.167,0.427,2.236,1.132,3.059c0.044,0.118,0.113,0.227,0.205,0.319c0.092,0.092,0.2,0.161,0.319,0.205
			c0.824,0.705,1.893,1.132,3.06,1.132c0.642,0,1.254-0.129,1.813-0.363c0.11-0.01,0.217-0.04,0.318-0.09
			c0.104-0.052,0.194-0.123,0.267-0.205C19.004,18.455,19.935,16.945,19.935,15.22z M15.22,18.145c-1.613,0-2.925-1.312-2.925-2.925
			c0-1.613,1.312-2.925,2.925-2.925s2.925,1.312,2.925,2.925C18.145,16.833,16.833,18.145,15.22,18.145z M9.688,19.855
			c-0.239,0-0.463,0.093-0.633,0.263l-2.954,2.955c-0.027,0.029-0.055,0.058-0.079,0.089c-0.031,0.025-0.062,0.051-0.089,0.079
			c-0.349,0.349-0.349,0.918,0,1.266c0.169,0.169,0.394,0.262,0.633,0.262c0.24,0,0.464-0.093,0.634-0.262
			c0.027-0.029,0.055-0.059,0.079-0.089c0.031-0.025,0.061-0.052,0.089-0.079l2.955-2.954c0.349-0.35,0.349-0.917,0-1.267
			C10.153,19.948,9.928,19.855,9.688,19.855z M21.488,25.755c-0.018-0.036-0.038-0.07-0.061-0.103
			c-0.012-0.038-0.027-0.075-0.045-0.11l-1.868-3.738c-0.153-0.305-0.461-0.495-0.802-0.495c-0.14,0-0.273,0.032-0.4,0.096
			c-0.214,0.106-0.372,0.29-0.449,0.517c-0.075,0.227-0.059,0.47,0.049,0.684l1.868,3.738c0.018,0.036,0.038,0.07,0.061,0.103
			c0.013,0.038,0.029,0.075,0.047,0.11c0.153,0.305,0.46,0.495,0.801,0.495c0.14,0,0.275-0.032,0.4-0.094
			c0.214-0.107,0.374-0.291,0.449-0.518C21.613,26.212,21.596,25.97,21.488,25.755z M53.752,39.738
			c0.029,0.028,0.059,0.054,0.091,0.079c0.024,0.031,0.05,0.061,0.078,0.089c0.17,0.17,0.394,0.263,0.634,0.263
			c0.239,0,0.463-0.093,0.633-0.263c0.349-0.348,0.349-0.917,0-1.266c-0.027-0.028-0.058-0.054-0.089-0.079
			c-0.025-0.031-0.051-0.061-0.079-0.089l-2.954-2.954c-0.17-0.169-0.394-0.263-0.634-0.263c-0.239,0-0.463,0.093-0.633,0.263
			c-0.168,0.17-0.263,0.394-0.263,0.633c0,0.24,0.094,0.464,0.263,0.634L53.752,39.738z M41.065,30.5c0,0.977,0.299,1.886,0.81,2.64
			l-0.448,0.448c-0.169,0.168-0.263,0.393-0.263,0.633c0,0.239,0.093,0.464,0.263,0.633c0.168,0.17,0.394,0.263,0.633,0.263
			c0.239,0,0.464-0.093,0.633-0.263l0.448-0.448c0.754,0.511,1.663,0.81,2.64,0.81c1.067,0,2.052-0.357,2.842-0.956
			c0.008,0,0.015,0.001,0.023,0.001c0.239,0,0.464-0.093,0.633-0.263c0.17-0.168,0.263-0.394,0.263-0.633
			c0-0.008-0.001-0.015-0.001-0.023c0.599-0.791,0.956-1.776,0.956-2.842c0-2.6-2.115-4.715-4.715-4.715
			C43.18,25.785,41.065,27.9,41.065,30.5z M48.704,30.5c0,1.613-1.312,2.925-2.925,2.925c-1.613,0-2.925-1.312-2.925-2.925
			c0-1.613,1.312-2.924,2.925-2.924C47.392,27.575,48.704,28.887,48.704,30.5z M54.375,0H6.625C2.972,0,0,2.972,0,6.625v47.749
			C0,58.028,2.972,61,6.625,61h47.75C58.028,61,61,58.028,61,54.375V6.625C61,2.972,58.028,0,54.375,0z M31.395,1.79h13.489v12.534
			H31.395V1.79z M14.325,59.209h-7.7c-2.666,0-4.835-2.169-4.835-4.835v-7.699h12.534V59.209z M14.325,44.885H1.791V31.395h12.534
			V44.885z M59.209,54.375c0,2.666-2.169,4.835-4.835,4.835h-7.7V46.675h12.534V54.375z M59.209,29.604h-5.79
			c-0.494,0-0.895,0.401-0.895,0.895c0,0.495,0.401,0.896,0.895,0.896h5.79v11.268l-1.237-1.237c-0.17-0.17-0.395-0.263-0.634-0.263
			c-0.239,0-0.464,0.093-0.633,0.263c-0.17,0.168-0.263,0.394-0.263,0.633c0,0.239,0.093,0.464,0.263,0.633l2.193,2.193H46.675
			V38.14c0-0.494-0.401-0.895-0.895-0.895c-0.495,0-0.895,0.401-0.895,0.895v6.745H38.14c-0.494,0-0.895,0.401-0.895,0.895
			c0,0.494,0.401,0.896,0.895,0.896h6.745v12.534H31.395v-5.79c0-0.494-0.401-0.895-0.895-0.895s-0.895,0.401-0.895,0.895v5.79
			H16.115V46.675h6.745c0.494,0,0.895-0.401,0.895-0.896c0-0.495-0.401-0.895-0.895-0.895h-6.745V31.395h2.925
			c0.495,0,0.895-0.401,0.895-0.896c0-0.494-0.401-0.895-0.895-0.895h-2.925V22.86c0-0.495-0.401-0.895-0.895-0.895
			s-0.895,0.401-0.895,0.895v6.745H2.101l2.312-2.312c0.17-0.168,0.263-0.394,0.263-0.633c0-0.239-0.093-0.463-0.263-0.633
			c-0.169-0.169-0.394-0.263-0.633-0.263c-0.24,0-0.464,0.093-0.634,0.263l-1.356,1.357V16.115h5.79
			c0.495,0,0.895-0.401,0.895-0.895c0-0.495-0.401-0.896-0.895-0.896h-5.79V6.625c0-2.666,2.169-4.835,4.835-4.835h7.7v5.79
			c0,0.494,0.401,0.895,0.895,0.895s0.895-0.401,0.895-0.895V1.79h13.489v12.534H22.86c-0.494,0-0.895,0.401-0.895,0.896
			c0,0.494,0.401,0.895,0.895,0.895h6.745v13.489h-1.97c-0.494,0-0.895,0.401-0.895,0.895c0,0.495,0.401,0.896,0.895,0.896h1.97
			v6.745c0,0.494,0.401,0.895,0.895,0.895s0.895-0.401,0.895-0.895v-6.745h6.745c0.494,0,0.895-0.401,0.895-0.896
			c0-0.494-0.401-0.895-0.895-0.895h-6.745V16.115h13.489v6.744c0,0.495,0.401,0.895,0.895,0.895c0.494,0,0.895-0.401,0.895-0.895
			v-6.744h12.534V29.604z M59.209,14.325H46.675V1.79h7.7c2.666,0,4.835,2.169,4.835,4.835V14.325z M34.26,42.915
			c0-0.239-0.093-0.465-0.263-0.633c-0.168-0.169-0.394-0.263-0.633-0.263c-0.008,0-0.015,0.001-0.023,0.001
			c-0.791-0.599-1.776-0.956-2.842-0.956c-0.511,0-1.003,0.083-1.464,0.234c0.045-0.2,0.02-0.408-0.073-0.594
			c-0.018-0.036-0.038-0.072-0.06-0.104c-0.013-0.038-0.029-0.075-0.047-0.11l-1.868-3.738c-0.153-0.306-0.461-0.496-0.802-0.496
			c-0.14,0-0.273,0.032-0.4,0.096c-0.442,0.221-0.621,0.759-0.4,1.201l1.868,3.736c0.018,0.036,0.038,0.07,0.061,0.104
			c0.012,0.037,0.029,0.074,0.047,0.11c0.095,0.19,0.249,0.334,0.434,0.417c-1.215,0.854-2.011,2.265-2.011,3.859
			c0,2.6,2.115,4.715,4.715,4.715c2.6,0,4.715-2.115,4.715-4.715c0-1.067-0.357-2.052-0.956-2.842
			C34.259,42.93,34.26,42.922,34.26,42.915z M30.5,48.704c-1.613,0-2.925-1.312-2.925-2.925s1.312-2.925,2.925-2.925
			c1.613,0,2.925,1.312,2.925,2.925S32.112,48.704,30.5,48.704z M39.274,36.11c-0.24,0-0.464,0.093-0.634,0.263
			c-0.027,0.029-0.055,0.059-0.079,0.091c-0.031,0.024-0.062,0.05-0.089,0.078l-2.955,2.954c-0.169,0.169-0.263,0.394-0.263,0.634
			c0,0.239,0.093,0.463,0.263,0.633c0.17,0.168,0.394,0.263,0.633,0.263c0.24,0,0.464-0.094,0.634-0.263l2.955-2.955
			c0.027-0.029,0.055-0.058,0.079-0.091c0.031-0.024,0.061-0.05,0.09-0.078c0.169-0.17,0.263-0.394,0.263-0.634
			c0-0.239-0.093-0.463-0.263-0.633C39.737,36.203,39.513,36.11,39.274,36.11z M25.226,33.23c-0.018-0.036-0.038-0.072-0.061-0.104
			c-0.013-0.037-0.029-0.075-0.047-0.11l-1.868-3.738c-0.153-0.306-0.46-0.495-0.801-0.495c-0.14,0-0.275,0.032-0.4,0.096
			c-0.214,0.106-0.374,0.29-0.449,0.517c-0.076,0.227-0.058,0.47,0.049,0.684l1.868,3.738c0.018,0.036,0.038,0.07,0.061,0.103
			c0.012,0.037,0.027,0.074,0.045,0.11c0.153,0.305,0.46,0.495,0.801,0.495c0.14,0,0.275-0.032,0.4-0.094
			c0.215-0.107,0.374-0.291,0.449-0.518C25.35,33.686,25.332,33.444,25.226,33.23z"/>
	</g>
</g>
</svg>
